<svg xmlns="http://www.w3.org/2000/svg" viewBox="0 0 64 64" fill="none">
  <defs>
    <linearGradient id="amberGrad" x1="0%" y1="0%" x2="100%" y2="100%">
      <stop offset="0%" stop-color="#fbbf24"/>
      <stop offset="100%" stop-color="#f59e0b"/>
    </linearGradient>
  </defs>
  <rect x="2" y="2" width="60" height="60" rx="16" fill="url(#amberGrad)" stroke="#d97706" stroke-width="2"/>
  <g transform="translate(13, 11) scale(1.5833)" stroke="#020617" stroke-width="2.3" stroke-linecap="round" stroke-linejoin="round" fill="none">
    <path d="m17 14 3 3.3a1 1 0 0 1-.7 1.7H4.7a1 1 0 0 1-.7-1.7L7 14h-.3a1 1 0 0 1-.7-1.7L9 9h-.2a1 1 0 0 1-.8-1.7L12 3l4 4.3a1 1 0 0 1-.8 1.7H15l3 3.3a1 1 0 0 1-.7 1.7H17z"/>
    <path d="M12 22v-3"/>
  </g>
</svg>
